<svg width="20" height="20" viewBox="0 0 20 20" fill="none" xmlns="http://www.w3.org/2000/svg">
<path d="M10.001 0C4.48514 0 0 4.48527 0 10.0013C0 15.5174 4.48514 20.0006 10.001 20.0006C15.5169 20.0006 20 15.5153 20 10.0013C20 4.48732 15.5128 0 10.001 0ZM10.001 18.8217C5.13528 18.8217 1.17889 14.8652 1.17889 10.0013C1.17889 5.13748 5.13528 1.17893 10.001 1.17893C14.8668 1.17893 18.8211 5.13748 18.8211 10.0013C18.8211 14.8652 14.8647 18.8217 10.001 18.8217Z" fill="#61EBFF"/>
<path d="M16.5 10.0008C16.5 13.5833 13.585 16.5 10.0008 16.5C6.41668 16.5 3.5 13.585 3.5 10.0008C3.5 6.41668 6.41499 3.5 10.0008 3.5C13.5867 3.5 16.5 6.41499 16.5 10.0008Z" fill="#61EBFF"/>
</svg>
