<svg width="17" height="20" viewBox="0 0 17 20" fill="none" xmlns="http://www.w3.org/2000/svg">
<path d="M17 3V9.09961C17 11.6296 16.203 13.9398 14.5986 16.0098C12.9943 18.0798 10.965 19.41 8.5 20C6.035 19.42 4.00574 18.0898 2.40137 16.0098C0.797039 13.9398 0 11.6296 0 9.09961V3L8.5 0L17 3Z" fill="#19191C"/>
<path d="M17 3V9.09961C17 11.6296 16.203 13.9398 14.5986 16.0098C12.9943 18.0798 10.965 19.41 8.5 20C6.035 19.42 4.00574 18.0898 2.40137 16.0098C0.797039 13.9398 0 11.6296 0 9.09961V3L8.5 0L17 3Z" stroke="black"/>
</svg>
